<svg id="Layer_1" data-name="Layer 1" xmlns="http://www.w3.org/2000/svg" viewBox="0 0 21.33 32"><defs><style>.cls-1{fill:#0acf83;}.cls-2{fill:#a259ff;}.cls-3{fill:#f24e1e;}.cls-4{fill:#ff7262;}.cls-5{fill:#1abcfe;}</style></defs><path class="cls-1" d="M5.33,32a5.34,5.34,0,0,0,5.34-5.33V21.33H5.33A5.34,5.34,0,0,0,5.33,32Z"/><path class="cls-2" d="M0,16a5.33,5.33,0,0,1,5.33-5.33h5.34V21.33H5.33A5.33,5.33,0,0,1,0,16Z"/><path class="cls-3" d="M0,5.33A5.33,5.33,0,0,1,5.33,0h5.34V10.67H5.33A5.34,5.34,0,0,1,0,5.33Z"/><path class="cls-4" d="M10.67,0H16a5.34,5.34,0,0,1,0,10.67H10.67Z"/><path class="cls-5" d="M21.33,16A5.33,5.33,0,1,1,16,10.67,5.33,5.33,0,0,1,21.33,16Z"/></svg>