<?xml version="1.0" encoding="utf-8"?>
<!-- Generator: Adobe Illustrator 26.0.0, SVG Export Plug-In . SVG Version: 6.00 Build 0)  -->
<svg version="1.1" id="Capa_1" xmlns="http://www.w3.org/2000/svg" xmlns:xlink="http://www.w3.org/1999/xlink" x="0px" y="0px"
	 viewBox="0 0 29.6 32" style="enable-background:new 0 0 29.6 32;" xml:space="preserve">
<style type="text/css">
	.st0{fill:#F6F6F6;}
	.st1{fill:#FFFFFF;}
	.st2{fill:#D1D1D1;}
	.st3{fill:#BDCDEB;}
</style>
<rect x="6.8" y="4.7" class="st0" width="18.7" height="24.9"/>
<polygon class="st1" points="4.4,27.3 4.4,2.6 22.7,2.6 "/>
<polygon class="st1" points="22.7,2.6 22.7,27.3 4.4,27.3 "/>
<g>
	<g>
		<g>
			<path class="st2" d="M22.7,27.6H4.2c-0.1,0-0.2-0.1-0.2-0.2v-25c0-0.1,0.1-0.2,0.2-0.2h18.6c0.1,0,0.2,0.1,0.2,0.2v25
				C23,27.5,22.9,27.6,22.7,27.6z M4.4,27.2h18.1V2.6H4.4V27.2z"/>
		</g>
		<g>
			<path class="st2" d="M25.4,29.9H6.8c-0.1,0-0.2-0.1-0.2-0.2v-2.3c0-0.1,0.1-0.2,0.2-0.2h15.7V4.6c0-0.1,0.1-0.2,0.2-0.2h2.7
				c0.1,0,0.2,0.1,0.2,0.2v25C25.6,29.8,25.5,29.9,25.4,29.9z M7,29.4h18.1V4.8H23v22.5c0,0.1-0.1,0.2-0.2,0.2H7V29.4z"/>
		</g>
		<g>
			<path class="st2" d="M22.7,4.2H4.2C4.1,4.2,4,4.1,4,4V2.4c0-0.1,0.1-0.2,0.2-0.2h18.6c0.1,0,0.2,0.1,0.2,0.2V4
				C23,4.1,22.9,4.2,22.7,4.2z M4.4,3.8h18.1V2.6H4.4V3.8z"/>
		</g>
		<g>
			<path class="st3" d="M16.5,14.3H5.7c-0.1,0-0.2-0.1-0.2-0.2V6.4c0-0.1,0.1-0.2,0.2-0.2h10.8c0.1,0,0.2,0.1,0.2,0.2V14
				C16.7,14.2,16.6,14.3,16.5,14.3z M5.9,13.8h10.4V6.6H5.9V13.8z"/>
		</g>
		<g>
			<path class="st3" d="M5.7,14.3c-0.1,0-0.1,0-0.2-0.1c-0.1-0.1,0-0.2,0.1-0.3l10.8-7.7c0.1-0.1,0.2,0,0.3,0.1
				c0.1,0.1,0,0.2-0.1,0.3L5.8,14.2C5.8,14.2,5.8,14.3,5.7,14.3z"/>
		</g>
		<g>
			<path class="st3" d="M16.5,14.2c0,0-0.1,0-0.1,0L5.6,6.6C5.5,6.5,5.5,6.4,5.5,6.3c0.1-0.1,0.2-0.1,0.3-0.1l10.8,7.6
				c0.1,0.1,0.1,0.2,0.1,0.3C16.6,14.2,16.6,14.2,16.5,14.2z"/>
		</g>
		<g>
			<path class="st3" d="M14,15.6H5.7c-0.1,0-0.2-0.1-0.2-0.2c0-0.1,0.1-0.2,0.2-0.2H14c0.1,0,0.2,0.1,0.2,0.2
				C14.2,15.5,14.1,15.6,14,15.6z"/>
		</g>
		<g>
			<path class="st3" d="M14,17H5.7c-0.1,0-0.2-0.1-0.2-0.2c0-0.1,0.1-0.2,0.2-0.2H14c0.1,0,0.2,0.1,0.2,0.2C14.2,16.9,14.1,17,14,17
				z"/>
		</g>
		<g>
			<path class="st3" d="M14,18.3H5.7c-0.1,0-0.2-0.1-0.2-0.2c0-0.1,0.1-0.2,0.2-0.2H14c0.1,0,0.2,0.1,0.2,0.2
				C14.2,18.2,14.1,18.3,14,18.3z"/>
		</g>
		<g>
			<path class="st3" d="M14,19.6H5.7c-0.1,0-0.2-0.1-0.2-0.2c0-0.1,0.1-0.2,0.2-0.2H14c0.1,0,0.2,0.1,0.2,0.2
				C14.2,19.5,14.1,19.6,14,19.6z"/>
		</g>
		<g>
			<path class="st3" d="M16.5,26.3H5.7c-0.1,0-0.2-0.1-0.2-0.2v-3.8c0-0.1,0.1-0.2,0.2-0.2h10.8c0.1,0,0.2,0.1,0.2,0.2v3.8
				C16.7,26.2,16.6,26.3,16.5,26.3z M5.9,25.9h10.4v-3.4H5.9V25.9z"/>
		</g>
		<g>
			<path class="st3" d="M21.2,26.3h-3c-0.1,0-0.2-0.1-0.2-0.2v-3.8c0-0.1,0.1-0.2,0.2-0.2h3c0.1,0,0.2,0.1,0.2,0.2v3.8
				C21.4,26.2,21.3,26.3,21.2,26.3z M18.5,25.9H21v-3.4h-2.5V25.9z"/>
		</g>
		<g>
			<path class="st3" d="M21.2,19.4h-3c-0.1,0-0.2-0.1-0.2-0.2V10c0-0.1,0.1-0.2,0.2-0.2h3c0.1,0,0.2,0.1,0.2,0.2v9.2
				C21.4,19.3,21.3,19.4,21.2,19.4z M18.5,18.9H21v-8.8h-2.5V18.9z"/>
		</g>
	</g>
</g>
</svg>
