<svg id="Layer_1" data-name="Layer 1" xmlns="http://www.w3.org/2000/svg" viewBox="0 0 32 32"><defs><style>.cls-1{fill:#2c100f;}.cls-2{fill:#fe7900;fill-rule:evenodd;}</style></defs><rect class="cls-1" width="32" height="32" rx="4.61"/><path class="cls-2" d="M16.38,20H11.74l-.88,2.64H8L12.82,9.81h2.46l4.81,12.85H17.27L16.38,20Zm-3.93-2.15h3.22l-1.62-4.81-1.6,4.81Zm11.36,4.79H21.25V13.12h2.56v9.54Zm-2.71-12a1.27,1.27,0,0,1,.38-.94,1.66,1.66,0,0,1,2.09,0,1.24,1.24,0,0,1,.39.94,1.27,1.27,0,0,1-.39,1,1.46,1.46,0,0,1-1,.37,1.44,1.44,0,0,1-1-.37A1.27,1.27,0,0,1,21.1,10.65Z"/></svg>