<svg id="Layer_1" data-name="Layer 1" xmlns="http://www.w3.org/2000/svg" viewBox="0 0 32 32"><defs><style>.cls-1{fill:#563d7c;}.cls-2{fill:#fff;}</style></defs><path class="cls-1" d="M0,27.87A4.13,4.13,0,0,0,4.13,32H27.87A4.13,4.13,0,0,0,32,27.87V4.13A4.13,4.13,0,0,0,27.87,0H4.13A4.13,4.13,0,0,0,0,4.13V27.87Z"/><path class="cls-2" d="M13.27,14.15V9.62h4a5.7,5.7,0,0,1,1.1.1,2.52,2.52,0,0,1,.93.34,1.8,1.8,0,0,1,.66.68,2.28,2.28,0,0,1,.24,1.11,2,2,0,0,1-.73,1.76,3.1,3.1,0,0,1-1.88.54ZM9,6.31V25.69H18.4a9.83,9.83,0,0,0,2.54-.33,6.85,6.85,0,0,0,2.19-1,4.91,4.91,0,0,0,1.54-1.75,5.35,5.35,0,0,0,.57-2.54A5.37,5.37,0,0,0,24.35,17a4.58,4.58,0,0,0-2.67-1.8,4.84,4.84,0,0,0,2-1.6,4.27,4.27,0,0,0,.66-2.44,5.29,5.29,0,0,0-.44-2.28A3.66,3.66,0,0,0,22.6,7.36a5.37,5.37,0,0,0-2-.8,11.57,11.57,0,0,0-2.52-.25Zm4.26,16.07V17.06h4.64a3.6,3.6,0,0,1,2.23.64A2.49,2.49,0,0,1,21,19.83a2.65,2.65,0,0,1-.26,1.24,2,2,0,0,1-.69.78,2.93,2.93,0,0,1-1,.4,5.17,5.17,0,0,1-1.19.13Z"/></svg>