<svg id="Capa_1" data-name="Capa 1" xmlns="http://www.w3.org/2000/svg" viewBox="0 0 29.57 32"><defs><style>.cls-1{fill:#fae186;}.cls-2{fill:#f6c77f;}.cls-3{fill:#f6f6f6;}.cls-4{fill:#fff;}.cls-5{fill:#fbeda5;}.cls-6{fill:#bdcdeb;}.cls-7{fill:#c8cedc;}</style></defs><polygon class="cls-1" points="29.57 12.59 0 12.59 14.79 0 29.57 12.59"/><rect class="cls-2" y="12.59" width="29.57" height="19.41"/><rect class="cls-3" x="3.54" y="3.75" width="22.49" height="19.41"/><polygon class="cls-4" points="4.18 23.69 4.18 4.29 25.16 4.29 4.18 23.69"/><polygon class="cls-1" points="0 32 0 12.59 15.42 22.3 0 32"/><polygon class="cls-1" points="29.57 32 29.57 12.59 14.15 22.3 29.57 32"/><polygon class="cls-5" points="29.57 32 0 32 14.79 19.41 29.57 32"/><rect class="cls-6" x="19.59" y="8.17" width="4.29" height="4.29"/><rect class="cls-7" x="6.31" y="7.98" width="12.5" height="2.34"/><rect class="cls-7" x="6.31" y="11.07" width="12.5" height="0.69"/><rect class="cls-7" x="6.31" y="12.72" width="12.5" height="0.69"/><rect class="cls-7" x="6.31" y="14.37" width="7.13" height="0.69"/><path class="cls-4" d="M22.54,10.26a.6.6,0,0,1-.58.33.92.92,0,0,1-.71-.35,1.64,1.64,0,0,0-.62,1.49,2.33,2.33,0,0,0,1.26.26,2.29,2.29,0,0,0,1.26-.26A1.65,1.65,0,0,0,22.54,10.26Z"/><path class="cls-4" d="M21.89,10.39a.88.88,0,1,0-.78-.87A.83.83,0,0,0,21.89,10.39Z"/></svg>