<svg id="Layer_1" data-name="Layer 1" xmlns="http://www.w3.org/2000/svg" viewBox="0 0 32 32"><defs><style>.cls-1{fill:#061f34;}.cls-2{fill:#0dd2ff;fill-rule:evenodd;}</style></defs><rect class="cls-1" width="32" height="32" rx="4.61"/><path class="cls-2" d="M15,13.8a4.51,4.51,0,0,1-.3,1.67,3.51,3.51,0,0,1-.89,1.32,3.94,3.94,0,0,1-1.47.86,6.14,6.14,0,0,1-2,.31H9.21v3.71H7V10.14h3.38a7.35,7.35,0,0,1,2,.24,4.09,4.09,0,0,1,1.45.71,3,3,0,0,1,.89,1.15A3.88,3.88,0,0,1,15,13.8ZM12.76,14a2.14,2.14,0,0,0-.15-.82,1.6,1.6,0,0,0-.44-.64,2.08,2.08,0,0,0-.75-.41,3.7,3.7,0,0,0-1.07-.14H9.21v4.21h1.22a3,3,0,0,0,1-.15,1.86,1.86,0,0,0,1.18-1.14,2.38,2.38,0,0,0,.16-.91ZM24.39,19a2.37,2.37,0,0,1-.34,1.31,2.56,2.56,0,0,1-.9.89,4.1,4.1,0,0,1-1.27.49,7,7,0,0,1-1.45.15,15.89,15.89,0,0,1-1.78-.09,11.12,11.12,0,0,1-1.5-.27V19.57a8.65,8.65,0,0,0,1.65.5,8.74,8.74,0,0,0,1.56.15A2.36,2.36,0,0,0,21.62,20a.82.82,0,0,0,.42-.71,1,1,0,0,0-.08-.37.88.88,0,0,0-.34-.32,3.41,3.41,0,0,0-.68-.31,10.13,10.13,0,0,0-1.16-.37,8.14,8.14,0,0,1-1.16-.42,3.17,3.17,0,0,1-.82-.55,2,2,0,0,1-.49-.74,2.69,2.69,0,0,1-.16-1,2.33,2.33,0,0,1,.24-1,2.57,2.57,0,0,1,.74-.85,4.07,4.07,0,0,1,1.22-.58,6.25,6.25,0,0,1,1.71-.21,11,11,0,0,1,1.5.09c.44.06.83.13,1.16.2v1.76a7.9,7.9,0,0,0-1.44-.35,8.75,8.75,0,0,0-1.34-.11,2.05,2.05,0,0,0-1.06.24.73.73,0,0,0-.4.66.68.68,0,0,0,.08.36.83.83,0,0,0,.31.31,3.93,3.93,0,0,0,.65.32c.28.1.65.22,1.11.35a10.12,10.12,0,0,1,1.31.47,3.31,3.31,0,0,1,.85.57,1.88,1.88,0,0,1,.46.73A2.91,2.91,0,0,1,24.39,19Z"/></svg>