<svg xmlns="http://www.w3.org/2000/svg" viewBox="0 0 36.31 32"><defs><style>.cls-1{fill:#8fc2ff;}.cls-2{fill:#70aafc;}.cls-3{fill:#3588fe;}.cls-4{fill:#fff;}</style></defs><g id="Chat"><path class="cls-1" d="M36.31,11.68V24.15a2.9,2.9,0,0,1-2.9,2.91H27.87l-6.64,4.88a.28.28,0,0,1-.44-.27l.84-4.61H13.82a2.91,2.91,0,0,1-2.91-2.91v-4l5.54,4.07a.35.35,0,0,0,.55-.35l-.92-5.06h6.4a4.07,4.07,0,0,0,4.08-4.08V8.78h6.85A2.9,2.9,0,0,1,36.31,11.68Z"/><path class="cls-2" d="M26.56,8.78v6.67a4,4,0,0,1-4,4H16.2L17,24a.29.29,0,0,1-.46.29l-5.66-4.15V10.85A2.08,2.08,0,0,1,13,8.78Z"/><path class="cls-3" d="M2.91,0H22.49A2.91,2.91,0,0,1,25.4,2.91V15.37a2.91,2.91,0,0,1-2.91,2.91h-7.8l.83,4.61a.27.27,0,0,1-.43.28L8.44,18.28H2.91A2.91,2.91,0,0,1,0,15.37V2.91A2.91,2.91,0,0,1,2.91,0Z"/><circle class="cls-4" cx="12.7" cy="9.46" r="1.18"/><circle class="cls-4" cx="7.99" cy="9.46" r="1.18"/><circle class="cls-4" cx="17.41" cy="9.46" r="1.18"/></g></svg>