<svg id="Layer_1" data-name="Layer 1" xmlns="http://www.w3.org/2000/svg" viewBox="0 0 32 31.66"><defs><style>.cls-1{fill:#2489ca;}.cls-2{fill:#1070b3;}.cls-3{fill:#0877b9;}.cls-4{fill:#3c99d4;}</style></defs><path class="cls-1" d="M.3,11s-.77-.56.16-1.31L2.64,7.78a.92.92,0,0,1,1.28-.09L24,22.92v7.3s0,1.15-1.48,1Z"/><path class="cls-2" d="M5.49,15.75.3,20.46s-.53.39,0,1.1l2.41,2.19a1,1,0,0,0,1.42-.08L9.62,19.5Z"/><path class="cls-3" d="M14.59,15.78l9.5-7.25L24,1.26S23.62-.32,22.27.5L9.62,12Z"/><path class="cls-4" d="M22.55,31.25a1.32,1.32,0,0,0,1.22.38L31.18,28A1.55,1.55,0,0,0,32,26.53V4.73a1.46,1.46,0,0,0-1-1.29L24.59.35A1.78,1.78,0,0,0,22.27.5s1.18-.85,1.76.76V30.09a1.21,1.21,0,0,1-.13.56c-.16.35-.53.66-1.41.53Z"/></svg>